<?xml version="1.0" encoding="UTF-8" standalone="no"?>
<!-- Created with Inkscape (http://www.inkscape.org/) -->

<svg
   xmlns:dc="http://purl.org/dc/elements/1.1/"
   xmlns:cc="http://creativecommons.org/ns#"
   xmlns:rdf="http://www.w3.org/1999/02/22-rdf-syntax-ns#"
   xmlns:svg="http://www.w3.org/2000/svg"
   xmlns="http://www.w3.org/2000/svg"
   xmlns:sodipodi="http://sodipodi.sourceforge.net/DTD/sodipodi-0.dtd"
   xmlns:inkscape="http://www.inkscape.org/namespaces/inkscape"
   width="268.8898mm"
   height="94.299858mm"
   viewBox="0 0 952.75914 334.13335"
   id="svg2"
   version="1.1"
   inkscape:version="0.91pre4 r13712"
   sodipodi:docname="Assinatura António Maria da Silva.svg">
  <defs
     id="defs4" />
  <sodipodi:namedview
     id="base"
     pagecolor="#ffffff"
     bordercolor="#666666"
     borderopacity="1.0"
     inkscape:pageopacity="0.0"
     inkscape:pageshadow="2"
     inkscape:zoom="1.1391247"
     inkscape:cx="516.84026"
     inkscape:cy="220.94857"
     inkscape:document-units="px"
     inkscape:current-layer="layer1"
     showgrid="false"
     fit-margin-top="0"
     fit-margin-left="0"
     fit-margin-right="0"
     fit-margin-bottom="0"
     inkscape:window-width="1366"
     inkscape:window-height="705"
     inkscape:window-x="-8"
     inkscape:window-y="-8"
     inkscape:window-maximized="1" />
  <metadata
     id="metadata7">
    <rdf:RDF>
      <cc:Work
         rdf:about="">
        <dc:format>image/svg+xml</dc:format>
        <dc:type
           rdf:resource="http://purl.org/dc/dcmitype/StillImage" />
        <dc:title></dc:title>
      </cc:Work>
    </rdf:RDF>
  </metadata>
  <g
     inkscape:label="Camada 1"
     inkscape:groupmode="layer"
     id="layer1"
     transform="translate(146.84026,-396.32027)">
    <path
       style="fill:#000000"
       d="m 572.01264,729.06812 c 0,-0.78963 0.71311,-1.70932 1.58468,-2.04378 0.87158,-0.33445 4.20697,-3.16887 7.41198,-6.29869 3.20502,-3.12984 9.1315,-8.4328 13.16996,-11.78436 11.88901,-9.86684 37.76554,-36.35659 47.25635,-48.37624 2.14618,-2.71803 7.0087,-8.56171 16.23108,-19.5062 2.13246,-2.53066 4.52541,-5.27285 5.31766,-6.09375 1.37953,-1.42944 13.91447,-16.39167 16.84079,-20.1019 1.55573,-1.97247 27.23717,-31.8197 32.34375,-37.59021 1.03125,-1.16533 5.03906,-5.83063 8.90625,-10.36732 9.10681,-10.68341 22.33917,-25.67978 28.97581,-32.83858 6.63781,-7.16006 17.13118,-19.5835 24.46169,-28.96098 1.80469,-2.30863 4.6881,-5.8003 6.40753,-7.75928 1.71956,-1.95898 3.55378,-4.72195 4.07616,-6.13991 0.52237,-1.41797 1.33031,-2.57813 1.7955,-2.57813 0.46519,0 0.84581,-0.46841 0.84581,-1.04092 0,-0.5725 2.1435,-3.98798 4.76334,-7.58996 2.61985,-3.60197 5.80238,-9.30939 7.07232,-12.68314 l 2.30887,-6.13411 -1.99547,-2.12399 c -2.10825,-2.2442 -7.29375,-3.79887 -11.21156,-3.36137 -1.28906,0.14395 -3.71831,1.30883 -5.39822,2.58864 -2.3639,1.80075 -3.95376,2.26181 -7.03129,2.03901 -3.46717,-0.25102 -3.97961,-0.57193 -3.99913,-2.50447 -0.0212,-2.09796 -0.37427,-2.22748 -6.59878,-2.42068 -3.61701,-0.11227 -7.36884,-0.6476 -8.33739,-1.18963 -1.37901,-0.77173 -2.18461,-0.57803 -3.71373,0.89294 -5.47335,5.2652 -12.82168,7.05604 -15.98264,3.89508 -1.59834,-1.59835 -2.1019,-1.56105 -12.68882,0.93978 -3.35156,0.7917 -7.57031,1.4527 -9.375,1.46888 -4.11432,0.0369 -9.375,-3.06027 -9.375,-5.51945 0,-2.49578 -1.65931,-3.33204 -3.5747,-1.80157 -4.68966,3.7472 -11.77467,6.21667 -20.14726,7.02229 -5.54921,0.53396 -6.71702,0.36322 -8.98509,-1.31363 -2.45569,-1.81556 -2.92813,-1.85268 -8.14538,-0.63989 -3.04618,0.70811 -9.44429,1.50684 -14.21804,1.77497 -7.27254,0.40847 -8.67953,0.26166 -8.67953,-0.90565 0,-0.77531 -0.84457,-1.39313 -1.90442,-1.39313 -1.04744,0 -2.14726,-0.63281 -2.44405,-1.40625 -0.78166,-2.03696 -1.85591,-1.81737 -11.65524,2.38238 -9.84905,4.22107 -19.96592,5.69482 -26.5452,3.8669 -2.89295,-0.80375 -4.34006,-0.71797 -7.03125,0.41679 -3.97045,1.67416 -14.74464,2.76977 -18.34689,1.86567 -3.25455,-0.81685 -2.92693,-3.84212 0.70898,-6.54687 3.54569,-2.63761 16.25452,-3.48921 17.15241,-1.14935 0.72813,1.89746 3.52875,1.95384 5.06566,0.10198 0.6419,-0.77344 2.58701,-1.40625 4.32248,-1.40625 2.71345,0 3.12414,0.29545 2.93209,2.10938 -0.20348,1.92197 0.13809,2.09286 3.84479,1.92357 5.10816,-0.23332 14.56219,-3.35028 23.10474,-7.61756 7.22002,-3.60664 18.30675,-11.35856 20.87824,-14.59823 0.90003,-1.13389 2.12568,-2.35954 2.72368,-2.72367 1.60711,-0.97862 4.07205,0.25278 4.04839,2.02244 -0.0293,2.19427 -3.23,8.96591 -6.59325,13.94931 -1.90295,2.81964 -2.55974,4.57368 -1.94335,5.19007 1.11245,1.11245 14.95024,-0.83312 19.5427,-2.74766 1.65923,-0.69171 4.08501,-1.25765 5.39063,-1.25765 1.90712,0 2.37386,0.46082 2.37386,2.34375 0,2.08994 0.38685,2.34375 3.57224,2.34375 1.96473,0 6.18348,-1.02334 9.375,-2.27408 3.19151,-1.25075 5.80276,-2.02912 5.80276,-1.7297 0,0.29941 0.73828,-0.0666 1.64062,-0.81323 0.90235,-0.74668 2.69532,-1.89034 3.98438,-2.54145 3.99022,-2.01549 5.24375,-3.25921 8.65096,-8.58324 5.06154,-7.90907 10.52228,-13.1208 13.7477,-13.1208 1.5192,0 2.94538,0.60495 3.24074,1.37464 0.5907,1.53936 -4.52995,8.32485 -10.63608,14.09411 -5.0549,4.77603 -6.74052,8.43459 -5.32126,11.54953 0.99215,2.17752 1.33139,2.2574 7.41966,1.74699 6.70037,-0.56174 10.74203,-1.64133 17.37061,-4.63998 2.20198,-0.99613 4.68518,-1.5496 5.51824,-1.22992 1.3913,0.53389 1.38973,0.71926 -0.0192,2.27612 -2.05228,2.26775 -1.93306,2.95351 0.51349,2.95351 1.2294,0 3.85242,-1.87273 6.5655,-4.6875 5.0196,-5.20775 6.65342,-5.64492 9.85519,-2.63702 2.85647,2.68351 10.72084,3.24407 19.40073,1.38287 5.64342,-1.2101 7.1287,-1.21528 11.7187,-0.0409 2.89097,0.73968 7.57659,2.4938 10.41253,3.89807 l 5.15625,2.5532 -0.0647,5.15625 c -0.0534,4.26252 -0.69862,6.21247 -3.7229,11.25 -5.84532,9.73656 -16.34541,24.07528 -22.43793,30.64079 -1.04477,1.12587 -3.28189,3.86806 -4.97139,6.09375 -1.68949,2.22569 -6.37524,8.08961 -10.41276,13.03095 -4.03753,4.94133 -7.71772,9.65036 -8.1782,10.46452 -0.67395,1.1916 -22.51427,27.33071 -26.13412,31.27807 -0.52421,0.57163 -4.96092,5.80008 -9.85935,11.61875 -4.89844,5.81869 -12.07032,14.21125 -15.9375,18.65013 -8.91655,10.23471 -16.84229,19.46805 -19.75969,23.01968 -1.24936,1.52096 -3.98947,4.68502 -6.08912,7.03125 -2.09956,2.34623 -7.34872,8.48461 -11.66469,13.64086 -18.89379,22.57217 -51.10017,56.44868 -63.72662,67.03125 -4.57325,3.83296 -19.52526,17.05343 -25.18185,22.26563 -2.62659,2.42024 -5.76543,2.78701 -5.76543,0.6737 z M 587.0048,462.40347 c 1.10205,-0.69674 1.15549,-1.12703 0.25219,-2.03033 -1.39497,-1.39497 -7.86127,-0.0402 -8.4544,1.77127 -0.46243,1.41236 6.05254,1.61813 8.20221,0.25906 z m 195.13834,-7.49349 c 1.73503,-1.44541 1.88119,-1.85055 0.6765,-1.875 -0.84525,-0.0172 -2.53275,0.79852 -3.75002,1.81262 -1.73501,1.44542 -1.88118,1.85055 -0.67646,1.875 0.84521,0.0172 2.53273,-0.79853 3.74998,-1.81262 z M 653.5648,443.69975 c 0.0104,-1.3461 -4.25005,1.82197 -5.89321,4.38217 -0.41366,0.64453 -1.2585,1.18529 -1.87741,1.20169 -0.61891,0.0164 -1.96904,0.67529 -3.00029,1.46421 -1.875,1.4344 -1.875,1.4344 0,2.84555 1.75771,1.32287 2.15291,1.09933 6.31778,-3.57359 2.44353,-2.74161 4.44744,-5.58562 4.45313,-6.32003 z m 66.10409,-6.63346 c 0.93327,-1.03125 1.27498,-1.875 0.75936,-1.875 -0.51563,0 -1.70109,0.84375 -2.63436,1.875 -0.93327,1.03125 -1.27498,1.875 -0.75936,1.875 0.51563,0 1.70109,-0.84375 2.63436,-1.875 z m -416.48438,86.5433 c -2.01519,-0.77306 -1.2964,-2.65055 2.19975,-5.7458 1.85438,-1.64175 3.60039,-2.985 3.88001,-2.985 0.27962,0 3.29755,-2.25922 6.70651,-5.02048 3.40896,-2.76128 9.36217,-6.64825 13.22936,-8.63774 3.86719,-1.98949 7.24219,-3.84798 7.5,-4.12999 0.25781,-0.282 2.78906,-1.51546 5.625,-2.74101 2.83594,-1.22555 7.1351,-3.23772 9.55369,-4.47149 2.41859,-1.23376 7.48109,-3.02516 11.25,-3.98089 l 6.85256,-1.7377 0.66878,-7.25345 c 0.63103,-6.84401 1.98381,-11.84921 5.15053,-19.05651 0.75469,-1.71766 1.16787,-3.32731 0.91817,-3.57701 -0.2497,-0.2497 -2.92246,0.77849 -5.93949,2.28486 -7.46688,3.72815 -13.13607,4.40835 -17.0259,2.04281 -1.64496,-1.00036 -2.99084,-2.45786 -2.99084,-3.23887 0,-1.55496 -1.91762,-1.89969 -3.32812,-0.59831 -2.12266,1.95845 -12.12217,4.80328 -16.8834,4.80328 -4.49368,0 -5.26821,-0.27881 -6.14985,-2.2138 -1.16716,-2.56163 0.22744,-5.9385 4.23574,-10.25638 2.7724,-2.98651 3.09191,-4.40482 0.99231,-4.40482 -1.7097,0 -2.94933,0.91741 -9.0032,6.66295 -4.1891,3.97575 -4.55098,4.67076 -4.55098,8.74062 0,3.6341 -0.28013,4.36744 -1.5732,4.11829 -2.17712,-0.41947 -3.31254,-5.25213 -2.10192,-8.94629 1.20394,-3.67381 9.32389,-10.39817 17.26887,-14.30086 1.54687,-0.75985 3.78864,-2.10737 4.98171,-2.99449 2.29068,-1.70328 4.86204,-1.38473 4.86204,0.60232 0,0.65006 -2.32031,4.66854 -5.15625,8.92996 -6.89467,10.36026 -6.86735,11.50274 0.24326,10.17433 7.60725,-1.42119 15.73346,-5.81546 18.50818,-10.00836 3.52964,-5.33364 9.84231,-7.53808 9.84231,-3.43702 0,0.71819 -1.47656,2.73981 -3.28125,4.4925 -2.38068,2.31208 -3.28125,3.99696 -3.28125,6.13888 0,3.11727 0.46658,3.34472 6.06981,2.95878 4.69467,-0.32335 19.24269,-8.36848 19.24269,-10.6413 0,-1.93564 4.94682,-7.25075 8.90998,-9.57331 6.56034,-3.84462 8.24506,-1.06403 3.20837,5.29531 -1.58491,2.00111 -4.0831,4.34809 -5.55154,5.21552 -1.46843,0.86743 -3.06965,2.45493 -3.55827,3.52778 -0.81794,1.79595 -4.09702,9.68261 -5.8783,14.13814 -1.85668,4.64415 -2.80028,8.93228 -3.00394,13.65123 l -0.22005,5.09877 3.28125,-0.19429 c 11.60141,-0.68692 20.43115,-1.37374 22.15219,-1.72308 2.19938,-0.44646 18.61021,-11.06646 19.61633,-12.69441 0.40651,-0.65774 -0.32336,-0.95612 -2.05328,-0.83939 -7.02455,0.47398 -10.46055,-0.0395 -11.08085,-1.65598 -0.96161,-2.50591 4.95799,-7.36587 11.17236,-9.17243 10.2046,-2.96656 15.50575,-2.77459 15.50575,0.56151 0,2.17583 0.0204,2.1783 3.40846,0.41135 5.50236,-2.86969 7.78146,-1.12101 3.90996,3 -1.78949,1.90483 -1.8808,2.36166 -0.70312,3.51775 1.16807,1.14665 2.1881,1.13426 7.4472,-0.0905 3.35156,-0.78053 8.04864,-2.48216 10.43796,-3.78143 5.48961,-2.98513 7.76338,-2.66349 7.80917,1.10467 0.0308,2.533 0.36026,2.83359 3.38385,3.08731 2.41996,0.20305 5.1198,-0.65797 9.72689,-3.10209 6.87645,-3.64802 8.95463,-3.67826 8.95463,-0.13026 0,1.55519 0.6603,2.44079 2.10937,2.82912 5.87506,1.57446 18.76042,-0.32353 23.56395,-3.47092 3.189,-2.08951 9.5886,-3.77812 11.5158,-3.03857 1.55769,0.59774 1.50306,0.80929 -0.63274,2.45021 l -2.33763,1.79599 2.17101,0.0208 c 2.93242,0.0281 5.66196,-1.50903 9.3585,-5.27041 2.0956,-2.13236 3.96596,-3.14624 5.80404,-3.14624 4.1418,0 4.49223,1.86072 0.91314,4.84867 -2.42066,2.02086 -2.90507,2.8992 -2.06325,3.74102 1.20216,1.20216 5.95173,0.19625 12.64684,-2.67845 3.26981,-1.40397 3.64323,-1.39692 5.29755,0.10023 2.71555,2.45754 3.16322,0.58185 2.28489,-9.57351 -0.92893,-10.74045 -0.68048,-14.58198 1.17513,-18.17034 1.70663,-3.30026 7.00089,-6.68396 12.65546,-8.08845 10.21546,-2.53732 64.57733,-5.01098 68.14634,-3.1009 2.77978,1.48769 2.63057,3.69597 -0.32568,4.81993 -3.3648,1.2793 -3.87237,1.16921 -4.42936,-0.9607 -0.43755,-1.6732 -1.27876,-1.875 -7.81591,-1.875 -8.26174,0 -45.00613,3.24969 -52.78382,4.66822 -9.63852,1.75792 -13.08293,7.58238 -11.32851,19.15637 1.66591,10.99001 -0.49398,18.31306 -5.96369,20.21981 -2.37302,0.82725 -3.11535,0.66812 -4.95779,-1.06277 -1.98586,-1.86562 -2.48886,-1.93922 -6.02088,-0.881 -4.33844,1.29983 -11.95826,1.18358 -13.77879,-0.21021 -0.79279,-0.60697 -2.38928,-0.56656 -4.6875,0.11863 -5.23884,1.56193 -9.6448,1.88414 -13.0201,0.95217 -2.1913,-0.60505 -3.98635,-0.43747 -6.48151,0.60507 -1.89798,0.79303 -6.88753,1.70603 -11.08789,2.0289 -6.47025,0.49734 -8.26279,0.30015 -11.73297,-1.2907 -4.03779,-1.85108 -4.16687,-1.85281 -9.0903,-0.12237 -6.66803,2.34362 -12.00558,2.26445 -15.50877,-0.23004 l -2.78828,-1.98543 -6.04801,1.98543 c -3.32641,1.09198 -7.74761,1.98542 -9.82488,1.98542 -3.92215,0 -9.30876,-2.18391 -9.30876,-3.77407 0,-1.98097 -3.61973,-0.73825 -7.56563,2.59742 -4.75438,4.01913 -4.62236,3.91511 -10.24687,8.07341 -2.32031,1.71544 -5.16797,3.62248 -6.32813,4.23785 -3.32733,1.76489 -2.51851,2.71466 3.28125,3.85301 9.29978,1.82532 12.46688,4.12714 13.75635,9.99804 0.91415,4.16214 -3.18582,7.4547 -10.40612,8.35682 -7.65441,0.95635 -21.20439,-0.16685 -29.28604,-2.42762 l -6.95145,-1.9446 -8.5173,4.16533 c -16.40599,8.02326 -44.50558,18.20594 -54.64448,19.80198 -1.13556,0.17875 -3.45587,0.74835 -5.15625,1.26577 -4.72516,1.43786 -7.65997,1.89769 -8.95095,1.40246 z m 15.70313,-6.01881 c 22.7965,-6.42418 27.5159,-7.96583 37.03125,-12.09672 2.0625,-0.89539 7.44964,-3.21153 11.97141,-5.14698 4.52177,-1.93545 8.45678,-3.89985 8.74446,-4.36533 0.28768,-0.46548 -0.72645,-2.26944 -2.25362,-4.00879 -1.52718,-1.73937 -2.94652,-3.67198 -3.15409,-4.29471 -0.95197,-2.8559 -29.17434,8.78969 -47.45879,19.58324 -2.72972,1.61139 -5.36644,2.9298 -5.85938,2.9298 -0.49293,0 -0.89624,0.42188 -0.89624,0.9375 0,0.51563 -0.59531,0.9375 -1.32292,0.9375 -1.38803,0 -6.17708,5.14363 -6.17708,6.63443 0,1.27425 1.5773,1.0875 9.375,-1.10994 z M 420.4695,496.64231 c 1.36435,-1.26445 2.48064,-2.69428 2.48064,-3.1774 0,-2.12439 -3.69247,-4.99254 -8.64846,-6.71776 -7.98142,-2.77839 -11.94065,-2.46774 -18.00706,1.41289 -2.82118,1.80469 -5.54142,3.28125 -6.04498,3.28125 -1.11943,0 -3.862,2.64952 -3.862,3.73097 0,1.33228 14.07848,3.57503 23.06623,3.67454 7.82839,0.0866 8.74034,-0.0958 11.01563,-2.20449 z m -34.26227,-5.82123 c 2.41953,-1.37237 5.55093,-3.08659 6.95865,-3.80937 4.6143,-2.36918 3.86682,-3.07217 -3.20728,-3.01639 -8.35334,0.0659 -14.08132,1.00831 -14.54281,2.39277 -0.34032,1.02095 4.58534,6.9282 5.77695,6.9282 0.33842,0 2.59494,-1.12284 5.01449,-2.49521 z m 40.25853,-29.00571 c 4.29419,-2.75806 1.67426,-4.83876 -4.12049,-3.27242 -4.47034,1.20837 -8.0623,3.64327 -7.26872,4.92732 0.78172,1.26484 8.61557,0.12656 11.38921,-1.6549 z m -523.828118,38.37488 c -2.835942,-0.15356 -7.265632,-0.68899 -9.843752,-1.18985 -2.57813,-0.50087 -7.42969,-1.42821 -10.78125,-2.06077 -7.81286,-1.47456 -18.49988,-6.32995 -22.30255,-10.13263 -5.52229,-5.52228 -8.21652,-14.46211 -5.45491,-18.10008 2.19853,-2.89621 3.60789,-2.00336 2.95969,1.875 -0.74131,4.43551 2.283,10.91918 6.98527,14.97533 5.90545,5.09402 19.90874,9.14651 40.006332,11.57769 15.615177,1.88894 56.096969,0.32026 73.431166,-2.84549 2.835937,-0.51792 8.742187,-1.59492 13.1250002,-2.39333 11.8821753,-2.16455 26.7387748,-6.49683 44.0624998,-12.84892 10.741069,-3.93843 40.727869,-18.54116 48.75,-23.7399 2.320313,-1.50367 4.901231,-3.16444 5.735372,-3.6906 6.332447,-3.99439 23.60162,-16.79776 26.96736,-19.99362 1.46288,-1.38905 4.49915,-4.0021 6.74728,-5.80679 8.07912,-6.48553 13.66778,-11.60908 22.70196,-20.81258 9.05398,-9.22367 11.15545,-10.37097 12.51357,-6.83178 0.30828,0.80336 -0.58166,4.50433 -1.97763,8.22438 -1.39598,3.72005 -2.76035,7.92389 -3.03193,9.34186 -0.27159,1.41796 -0.86778,2.57812 -1.32489,2.57812 -0.45709,0 -0.83109,0.55386 -0.83109,1.23079 0,0.67694 -1.05469,3.41706 -2.34375,6.08916 -1.28906,2.67209 -2.34375,5.44158 -2.34375,6.15441 0,0.71283 -0.63281,1.82124 -1.40625,2.46314 -0.77344,0.6419 -1.40885,1.64277 -1.41203,2.22417 -0.003,0.58139 -0.68086,2.32271 -1.50599,3.86958 -7.1301,13.36706 -11.07416,21.94532 -10.3999,22.61959 0.28672,0.2867 2.05249,-0.0324 3.92394,-0.70913 3.88971,-1.40654 5.20022,-0.43259 4.48093,3.33012 -0.2578,1.34861 0.11853,2.35388 1.00916,2.69564 1.85201,0.71069 7.5252,-0.88044 11.26073,-3.15822 1.62561,-0.99123 3.73967,-1.80382 4.69792,-1.80574 1.41596,-0.003 1.62576,0.46067 1.12019,2.475 l -0.62207,2.47851 5.99054,-0.61375 c 3.2948,-0.33756 7.75353,-1.46553 9.90829,-2.5066 2.15477,-1.04107 4.95663,-2.28783 6.22635,-2.77058 1.26973,-0.48276 3.05691,-2.45925 3.97152,-4.39221 1.776,-3.75348 7.19185,-8.04514 9.57369,-7.58644 2.74477,0.5286 2.02091,3.37805 -1.82557,7.18627 -3.20115,3.16932 -3.81183,4.3478 -3.5675,6.88447 0.27053,2.80862 0.58962,3.08484 3.87596,3.35544 2.32392,0.19135 4.94539,-0.4162 7.4671,-1.73059 2.62566,-1.36858 4.86555,-1.8665 6.90644,-1.53531 2.40195,0.38978 3.52719,-0.0166 5.49487,-1.98422 2.3314,-2.3314 2.61924,-2.39334 4.98116,-1.07198 1.37872,0.77131 2.64076,2.33126 2.80453,3.46653 0.28723,1.99122 0.41549,2.01495 3.63011,0.6718 5.1992,-2.17237 7.79088,-1.85588 7.79088,0.9514 0,1.93681 0.44764,2.34018 2.57812,2.32316 1.41797,-0.0113 4.41717,-0.85507 6.66488,-1.875 4.808,-2.18168 6.6945,-2.34032 6.6945,-0.56295 0,0.7103 0.6534,1.83373 1.452,2.49651 1.21057,1.00468 2.90603,0.61742 10.1965,-2.32895 9.4603,-3.82329 12.32919,-3.83721 13.27609,-0.0644 1.42222,5.66655 -1.22842,7.35232 -7.27395,4.62616 -3.59782,-1.62239 -3.78004,-1.61365 -7.8794,0.37798 -5.01375,2.43586 -7.045,2.53067 -11.26952,0.52602 -2.10547,-0.99912 -4.22265,-1.29941 -6.23543,-0.88441 -8.41889,1.73583 -9.89587,1.69472 -11.62392,-0.3235 -1.74919,-2.04289 -6.3391,-2.68301 -7.36269,-1.02681 -0.6826,1.10448 -4.13047,-0.49299 -5.72167,-2.65096 -0.89443,-1.21304 -1.48031,-1.06557 -4.29454,1.08094 -2.33681,1.78237 -4.2983,2.45782 -6.93301,2.3874 -2.02082,-0.054 -6.24542,0.21393 -9.38799,0.59545 -6.21505,0.7545 -10.04503,-0.71107 -11.17677,-4.27687 -0.53136,-1.67415 -0.80698,-1.64579 -5.89593,0.60684 -7.05565,3.12319 -19.05893,4.88046 -22.12569,3.23917 -1.8191,-0.97355 -3.07366,-0.93732 -6.95652,0.20091 -6.12997,1.79694 -9.42825,1.16663 -12.45388,-2.37998 l -2.44758,-2.86904 -2.77414,1.97537 c -1.52579,1.08645 -4.20251,4.78948 -5.94829,8.22894 -1.74578,3.43946 -3.74859,6.474 -4.45067,6.74342 -2.46679,0.94659 -3.34383,-1.28077 -2.39461,-6.08147 1.17502,-5.94267 0.801,-6.85466 -2.53732,-6.187 -3.78795,0.7576 -6.99894,-0.23125 -9.77927,-3.01158 -3.0157,-3.0157 -3.01645,-6.07504 -0.003,-9.65706 6.12237,-7.27603 15.74275,-4.90603 17.23015,4.24469 0.83605,5.14348 2.55802,4.85147 5.17883,-0.87821 1.27787,-2.7937 2.97436,-5.6197 3.76999,-6.28 0.79607,-0.66035 1.44704,-1.73024 1.44704,-2.37757 0,-1.21727 2.17847,-6.43728 3.71672,-8.90595 0.48193,-0.77344 2.42502,-4.99219 4.31796,-9.375 1.89295,-4.38281 3.99726,-9.23437 4.67625,-10.78125 4.24659,-9.67466 6.10845,-14.9622 5.85724,-16.63424 -0.23724,-1.57912 -1.42325,-0.73278 -6.84942,4.8877 -15.98927,16.56187 -48.307715,40.60004 -66.907086,49.76489 -3.283275,1.61784 -7.9239,4.0839 -10.3125,5.48016 -4.387201,2.56453 -28.545404,13.22024 -29.972401,13.22024 -0.424321,0 -2.846896,1.05293 -5.3835,2.33982 -2.536603,1.28691 -5.216737,2.3416 -5.955843,2.34375 -0.739107,0.002 -3.692231,0.81642 -6.5625,1.80948 -5.299378,1.83348 -13.9801591,4.18064 -25.8436688,6.98778 -23.2457062,5.5004 -60.1541722,8.15959 -90.4687492,6.51813 z M 268.42601,467.79216 c -0.51563,-0.51563 -1.44117,-0.6262 -2.05677,-0.24575 -0.85039,0.52557 -0.82446,0.87397 0.10792,1.45021 1.59932,0.98843 3.17062,0.0174 1.94885,-1.20446 z m -62.97587,-0.20179 c 0,-0.98951 -1.79917,-1.40523 -2.3343,-0.53937 -0.32387,0.52403 0.0688,0.95279 0.87272,0.95279 0.80387,0 1.46158,-0.18604 1.46158,-0.41342 z m -88.42572,-3.88898 c -0.65103,-4.01184 -2.12546,-6.0101 -4.43461,-6.0101 -2.00829,0 -4.63967,2.40993 -4.63967,4.24919 0,2.1831 3.93941,5.12581 6.86194,5.12581 2.64193,0 2.73533,-0.14207 2.21234,-3.3649 z m 139.15591,-9.0708 c -2.70084,-1.39719 -2.6066,-2.58679 0.34685,-4.37884 1.83402,-1.11281 2.47376,-1.13352 3.69547,-0.11958 1.90292,1.57928 1.89994,4.38391 -0.006,5.11507 -1.8112,0.69502 -1.37157,0.76218 -4.03688,-0.61665 z m -82.01429,-6.54867 c -0.85658,-3.1963 -0.78444,-3.36955 1.98722,-4.77206 4.49327,-2.27368 16.60247,-3.43107 35.89768,-3.43107 15.04707,0 18.7117,0.24689 18.7117,1.26064 0,0.99855 -4.23936,1.38729 -20.39063,1.86977 -20.74526,0.61972 -31.54691,2.02621 -31.75781,4.13522 -0.0645,0.64453 -0.16992,1.59375 -0.23437,2.10937 -0.23423,1.87379 -3.65234,0.92319 -4.21379,-1.17187 z m 517.46727,-1.33549 c -1.92476,-2.63929 -1.22854,-5.1973 1.56438,-5.74769 1.72922,-0.34077 6.74056,5.87045 5.87124,7.27704 -1.17671,1.90396 -5.59444,0.99533 -7.43562,-1.52935 z m -209.3863,-9.788 c -4.55207,-2.91522 -3.83052,-7.35338 0.99079,-6.09414 1.13085,0.29535 3.3093,1.55081 4.84101,2.7899 2.40789,1.94788 2.61446,2.45828 1.52584,3.76999 -1.67462,2.01779 -3.67761,1.891 -7.35764,-0.46575 z"
       id="path3394"
       inkscape:connector-curvature="0" />
  </g>
</svg>
